<?xml version="1.0" encoding="utf-8"?>
<svg version="1.1" id="Ebene_1" xmlns="http://www.w3.org/2000/svg" xmlns:xlink="http://www.w3.org/1999/xlink" x="0px" y="0px"
	 viewBox="0 1 596 124.5" style="enable-background:new 0 1 596 124.5;" xml:space="preserve">
<style type="text/css">
	.st0{fill:#000000;}
</style>
<path class="st0" d="M37.1,125.6c-0.1,0-0.2-0.1-0.3-0.2L7.4,9.5v112.7h5.3c0.1,0,0.3,0.1,0.3,0.3v1.2c0,0.1-0.1,0.3-0.3,0.3H0.3
	c-0.1,0-0.3-0.1-0.3-0.3v-1.2c0-0.1,0.1-0.3,0.3-0.3h5.3V4.9H0.3C0.2,4.9,0,4.8,0,4.6V3.4c0-0.1,0.1-0.3,0.3-0.3H18
	c0.1,0,0.2,0.1,0.3,0.2l23.8,94.2L64.6,3.3c0-0.1,0.1-0.2,0.3-0.2h17.7c0.1,0,0.3,0.1,0.3,0.3v1.2c0,0.1-0.1,0.3-0.3,0.3h-5.3v117.4
	h5.3c0.1,0,0.3,0.1,0.3,0.3v1.2c0,0.1-0.1,0.3-0.3,0.3H59.4c-0.1,0-0.3-0.1-0.3-0.3v-1.2c0-0.1,0.1-0.3,0.3-0.3h5.3V11.3L37.4,125.4
	C37.4,125.6,37.3,125.6,37.1,125.6L37.1,125.6z"/>
<path class="st0" d="M457.9,123.9h-22.8c-0.1,0-0.3-0.1-0.3-0.3v-1.2c0-0.1,0.1-0.3,0.3-0.3h5.3V4.7h-5.3c-0.1,0-0.3-0.1-0.3-0.3
	V3.2c0-0.1,0.1-0.3,0.3-0.3h22.8c0.1,0,0.3,0.1,0.3,0.3v1.2c0,0.1-0.1,0.3-0.3,0.3h-5.3v117.4h5.3c0.1,0,0.3,0.1,0.3,0.3v1.2
	C458.2,123.8,458.1,123.9,457.9,123.9"/>
<path class="st0" d="M155.8,122.3h-5.3l-30.4-121c0-0.1-0.1-0.2-0.3-0.2c-0.1,0-0.2,0.1-0.3,0.2L90.1,122.1h-3.5
	c-0.1,0-0.3,0.1-0.3,0.3v1.2c0,0.1,0.1,0.3,0.3,0.3h8.6c0.1,0,0.3-0.1,0.3-0.3v-1.2c0-0.1-0.1-0.3-0.3-0.3h-3.4l8.9-36.7h28.7
	l8.9,36.7h-5.2c-0.1,0-0.3,0.1-0.3,0.3v1.2c0,0.1,0.1,0.3,0.3,0.3h22.6c0.1,0,0.3-0.1,0.3-0.3v-1.2
	C156.1,122.4,155.9,122.3,155.8,122.3z M129.3,84.2h-28.2l13.8-57.4l0,0L129.3,84.2L129.3,84.2L129.3,84.2z"/>
<path class="st0" d="M186.8,122.6h-10.3V4.7h10.3c8.7,0.1,15.3,5.1,19.7,14.9c4.2,9.6,6.5,24,6.6,42.9
	C213.4,102.8,205.2,121.4,186.8,122.6 M209.7,11.8c-9-7.7-19-8.6-22.9-8.6c-0.1,0-2.6,0-7.4,0c-7.1,0-17.3,0-19.9,0h-0.6
	c-0.1,0-0.1,0-0.2,0.1c0,0-0.1,0.1-0.1,0.2v1.2c0,0.1,0.1,0.3,0.3,0.3h5.3v117.4h-5.3c-0.1,0-0.3,0.1-0.3,0.3v1.2
	c0,0.1,0.1,0.3,0.3,0.3h26.9c35.9,0,41.3-38.1,41.3-60.9C227.1,38.8,221.3,21.7,209.7,11.8"/>
<path class="st0" d="M293.9,123.9h-64.4c-0.1,0-0.3-0.1-0.3-0.3v-1.2c0-0.1,0.1-0.3,0.3-0.3h5.3V4.9h-5.3c-0.1,0-0.3-0.1-0.3-0.3
	V3.4c0-0.1,0.1-0.3,0.3-0.3h59.8c0.1,0,0.1,0,0.2,0.1c0,0,0.1,0.1,0.1,0.2v29.3c0,0.1-0.1,0.3-0.2,0.3l0,0c-0.1,0-0.3-0.1-0.3-0.2
	c0-0.3-3.4-27.9-17.9-27.9h-0.1h-23.6v56h2.7c15.4-1.3,19.2-14.2,20.9-26.8c0-0.1,0.1-0.2,0.3-0.2c0.2,0,0.3,0.1,0.3,0.3v55.3
	c0,0.1-0.1,0.3-0.2,0.3l0,0c-0.1,0-0.3-0.1-0.3-0.2c-1.7-12.5-5.4-25.4-20.9-26.8h-2.7v59.5h19c4.6-0.1,10.8-4.2,15.9-10.5
	c6.2-7.6,10.2-17.4,11.3-27.7c0-0.1,0.1-0.2,0.3-0.2c0.2,0,0.3,0.1,0.3,0.3v39.5C294.2,123.8,294.1,123.9,293.9,123.9"/>
<path class="st0" d="M595.1,123.9h-64.4c-0.1,0-0.3-0.1-0.3-0.3v-1.2c0-0.1,0.1-0.3,0.3-0.3h5.3V4.9h-5.3c-0.1,0-0.3-0.1-0.3-0.3
	V3.4c0-0.1,0.1-0.3,0.3-0.3h59.8c0.1,0,0.1,0,0.2,0.1c0,0,0.1,0.1,0.1,0.2v29.3c0,0.1-0.1,0.3-0.2,0.3l0,0c-0.1,0-0.3-0.1-0.3-0.2
	c0-0.3-3.4-27.9-17.9-27.9h-0.1h-23.6v56h2.7c15.4-1.3,19.2-14.2,20.9-26.8c0-0.1,0.1-0.2,0.3-0.2s0.3,0.1,0.3,0.3v55.3
	c0,0.1-0.1,0.3-0.2,0.3l0,0c-0.1,0-0.3-0.1-0.3-0.2c-1.7-12.5-5.4-25.4-20.9-26.8h-2.7v59.5h19c4.5-0.1,10.8-4.2,15.9-10.5
	c6.2-7.6,10.2-17.4,11.3-27.7c0-0.1,0.1-0.2,0.3-0.2s0.3,0.1,0.3,0.3v39.5C595.3,123.8,595.2,123.9,595.1,123.9"/>
<path class="st0" d="M431,123.9h-64.4c-0.1,0-0.3-0.1-0.3-0.3v-1.2c0-0.1,0.1-0.3,0.3-0.3h5.3V4.9h-5.3c-0.1,0-0.3-0.1-0.3-0.3V3.4
	c0-0.1,0.1-0.3,0.3-0.3h59.8c0.1,0,0.1,0,0.2,0.1c0,0,0.1,0.1,0.1,0.2v29.3c0,0.1-0.1,0.3-0.2,0.3s-0.3-0.1-0.3-0.2
	c0-0.3-3.3-27.9-17.9-27.9h-0.1h-23.6v56h2.7c15.4-1.3,19.2-14.2,20.9-26.8c0-0.1,0.1-0.2,0.3-0.2c0.2,0,0.3,0.1,0.3,0.3v55.3
	c0,0.1-0.1,0.3-0.2,0.3l0,0c-0.1,0-0.3-0.1-0.3-0.2c-1.7-12.5-5.4-25.4-20.9-26.8h-2.7v59.5h19c4.5-0.1,10.8-4.2,15.9-10.5
	c6.2-7.6,10.2-17.4,11.3-27.7c0-0.1,0.1-0.2,0.3-0.2c0.2,0,0.3,0.1,0.3,0.3v39.5C431.2,123.8,431.1,123.9,431,123.9"/>
<path class="st0" d="M362.5,123.9h-64.4c-0.1,0-0.3-0.1-0.3-0.3v-1.2c0-0.1,0.1-0.3,0.3-0.3h5.3V4.9h-5.3c-0.1,0-0.3-0.1-0.3-0.3
	V3.4c0-0.1,0.1-0.3,0.3-0.3h23.2c0.1,0,0.3,0.1,0.3,0.3v1.2c0,0.1-0.1,0.3-0.3,0.3H316v117.4h19c4.6-0.1,10.8-4.2,15.9-10.5
	c6.2-7.6,10.2-17.4,11.3-27.7c0-0.1,0.1-0.2,0.3-0.2c0.2,0,0.3,0.1,0.3,0.3v39.5C362.7,123.8,362.6,123.9,362.5,123.9"/>
<path class="st0" d="M526.7,3.3L526.7,3.3c-0.1,0-0.1-0.1-0.2-0.1l0,0h-12h-0.3c-0.1,0-0.3,0.1-0.3,0.3v1.2c0,0.1,0.1,0.3,0.3,0.3
	h0.2l0,0h5v84.5L481.3,3.3c0-0.1-0.1-0.2-0.2-0.2h-19.2c-0.1,0-0.3,0.1-0.3,0.3v1.2c0,0.1,0.1,0.3,0.3,0.3h5.3v117.4h-5.3
	c-0.1,0-0.3,0.1-0.3,0.3v1.2c0,0.1,0.1,0.3,0.3,0.3h6.3h6c0.1,0,0.3-0.1,0.3-0.3v-1.2c0-0.1-0.1-0.3-0.3-0.3h-5.3V9.8L520.6,126
	c0,0.1,0.1,0.2,0.2,0.2c0,0,0,0,0.1,0s0.2-0.1,0.2-0.3V96.3V4.9h5.3c0.1,0,0.3-0.1,0.3-0.3l0,0V3.4l0,0
	C526.8,3.4,526.8,3.3,526.7,3.3z"/>
</svg>
